<?xml version="1.0" standalone="no"?>
<!DOCTYPE svg PUBLIC "-//W3C//DTD SVG 20010904//EN"
 "http://www.w3.org/TR/2001/REC-SVG-20010904/DTD/svg10.dtd">
<svg version="1.0" xmlns="http://www.w3.org/2000/svg"
 width="500.000000pt" height="500.000000pt" viewBox="0 0 500.000000 500.000000"
 preserveAspectRatio="xMidYMid meet">
<metadata>
Created by potrace 1.14, written by Peter Selinger 2001-2017
</metadata>
<g transform="translate(0.000000,500.000000) scale(0.100000,-0.100000)"
fill="#000000" stroke="none">
<path d="M980 1645 l0 -175 75 0 c68 0 75 2 75 19 0 17 -8 20 -47 23 l-48 3
-3 153 -3 152 -24 0 -25 0 0 -175z"/>
<path d="M1900 1645 l0 -175 58 0 c124 1 172 29 172 101 0 38 -19 69 -51 82
-11 5 -11 8 3 16 23 15 32 67 18 101 -15 36 -53 50 -136 50 l-64 0 0 -175z
m144 119 c39 -38 6 -94 -56 -94 l-38 0 0 55 0 55 39 0 c23 0 46 -7 55 -16z
m20 -150 c43 -43 2 -104 -69 -104 l-45 0 0 60 0 60 49 0 c32 0 55 -6 65 -16z"/>
<path d="M2361 1803 c-65 -32 -102 -123 -82 -201 31 -113 154 -166 256 -109
114 63 111 252 -5 312 -38 20 -127 19 -169 -2z m163 -54 c102 -89 19 -267
-110 -235 -63 16 -104 102 -84 175 24 90 125 121 194 60z"/>
<path d="M2990 1703 l0 -118 -73 80 c-39 44 -87 95 -104 115 l-32 35 -1 -172
c0 -166 1 -173 20 -173 19 0 20 7 20 118 l1 117 37 -40 c20 -22 67 -74 104
-115 l68 -75 0 173 c0 165 -1 172 -20 172 -19 0 -20 -7 -20 -117z"/>
<path d="M3210 1645 l0 -175 25 0 25 0 0 175 0 175 -25 0 -25 0 0 -175z"/>
<path d="M3410 1800 c0 -17 7 -20 45 -20 l45 0 0 -155 0 -155 25 0 25 0 0 155
0 155 45 0 c38 0 45 3 45 20 0 19 -7 20 -115 20 -108 0 -115 -1 -115 -20z"/>
<path d="M1387 1798 c-3 -7 -39 -84 -81 -170 l-75 -158 27 0 c23 0 30 7 41 35
l12 35 85 0 84 0 17 -35 c13 -27 23 -35 44 -35 l27 0 -81 170 c-45 93 -85 170
-88 170 -4 0 -9 -6 -12 -12z m44 -143 c16 -35 29 -67 29 -70 0 -3 -27 -5 -60
-5 -33 0 -60 3 -60 8 0 9 53 132 58 132 2 0 16 -29 33 -65z"/>
<path d="M3827 1647 c-42 -89 -77 -165 -77 -169 0 -5 11 -8 24 -8 19 0 28 8
37 35 l13 35 87 0 87 0 12 -35 c10 -29 16 -35 40 -35 l29 0 -63 133 c-95 198
-99 207 -105 207 -3 0 -41 -73 -84 -163z m143 -58 c0 -5 -27 -9 -60 -9 -33 0
-60 2 -60 5 0 3 14 36 31 73 l31 67 29 -64 c16 -35 29 -68 29 -72z"/>
<path d="M1923 1340 c-47 -19 -57 -87 -18 -125 39 -40 96 -32 121 16 18 36 10
73 -23 99 -28 22 -46 24 -80 10z m65 -26 c43 -30 20 -104 -32 -104 -30 0 -46
18 -46 55 0 34 8 49 30 58 23 8 24 8 48 -9z"/>
<path d="M2237 1344 c-11 -11 -9 -154 3 -154 6 0 10 11 10 24 0 14 5 28 12 32
10 7 19 -1 44 -43 7 -10 15 -15 19 -11 4 4 0 19 -9 33 -15 23 -15 27 -1 41 19
19 19 48 2 63 -18 14 -70 25 -80 15z m57 -29 c20 -21 10 -45 -20 -45 -18 0
-24 5 -24 23 0 39 18 48 44 22z"/>
<path d="M2850 1270 c0 -47 4 -80 10 -80 6 0 10 33 10 80 0 47 -4 80 -10 80
-6 0 -10 -33 -10 -80z"/>
<path d="M3080 1271 c0 -47 4 -81 10 -81 6 0 10 14 10 30 0 38 16 38 38 0 24
-42 48 -41 26 1 -11 23 -13 34 -5 42 13 13 15 63 3 71 -4 2 -24 7 -45 11 l-37
7 0 -81z m55 45 c23 -16 14 -46 -15 -46 -16 0 -20 7 -20 30 0 33 7 37 35 16z"/>
<path d="M1532 1276 c-14 -76 -15 -86 -3 -86 5 0 13 21 18 48 l9 47 25 -48 25
-49 19 41 c10 23 21 41 25 41 4 0 10 -18 14 -40 6 -37 26 -57 26 -26 0 23 -23
120 -30 129 -3 4 -17 -15 -30 -43 l-23 -50 -29 50 c-16 28 -30 50 -31 50 -2 0
-9 -29 -15 -64z"/>
<path d="M2547 1265 c-26 -53 -33 -75 -23 -75 8 0 16 7 20 15 3 10 19 15 46
15 29 0 40 -4 40 -15 0 -8 7 -15 15 -15 8 0 15 2 15 5 0 7 -69 145 -73 145 -1
0 -19 -34 -40 -75z m63 -17 c0 -4 -11 -8 -25 -8 -23 0 -24 2 -13 26 11 24 13
25 25 8 7 -10 13 -21 13 -26z"/>
<path d="M3396 1272 c-41 -82 -41 -82 -21 -82 8 0 15 7 15 15 0 21 69 20 85
-1 6 -9 17 -15 22 -13 7 2 -5 35 -27 79 l-37 74 -37 -72z m42 -30 c-27 -5 -32
2 -18 29 l13 22 13 -24 c11 -22 11 -24 -8 -27z"/>
</g>
</svg>
